<?xml version="1.0" encoding="UTF-8"?>
<!--
  Bitcode AssetPack mark — dual:
  soft purple top + soft orange lower; green shell + mid tape;
  purple brackets; orange lattice below the tape.
-->
<svg xmlns="http://www.w3.org/2000/svg" viewBox="0 0 64 64" fill="none">
  <path fill="rgba(232,121,249,0.32)" d="M32 6 52 17.5 52 32.5 32 44 12 32.5 12 17.5 32 6Z"/>
  <path fill="rgba(251,146,60,0.32)" d="M12 32.5 32 44l20-11.5V46.5L32 58 12 46.5V32.5Z"/>
  <path stroke="#65FEB7" stroke-width="2.4" stroke-linejoin="round" d="M32 6 52 17.5v29L32 58 12 46.5v-29L32 6Z"/>
  <path fill="#fb923c" opacity="0.42" d="M20.5 41 32 47.5 43.5 41V49.5L32 56 20.5 49.5V41Z"/>
  <circle cx="26" cy="44" r="2.2" fill="#fb923c"/>
  <circle cx="38" cy="44" r="2.2" fill="#fb923c"/>
  <circle cx="32" cy="51.5" r="2.2" fill="#fb923c"/>
  <path stroke="#fb923c" stroke-width="1.6" stroke-linecap="round" d="M27.8 44.8 30.2 49.5M36.2 44.8 33.8 49.5M28.2 44H35.8"/>
  <path stroke="#65FEB7" stroke-width="2.4" stroke-linejoin="round" d="M12 32.5 32 44l20-11.5"/>
  <path stroke="#e879f9" stroke-width="2" stroke-linecap="round" stroke-linejoin="round" d="M27 18.5 23.5 22 27 25.5M37 18.5 40.5 22 37 25.5"/>
</svg>
