<svg width="36" height="49" viewBox="-8 -5 52 59" fill="none" xmlns="http://www.w3.org/2000/svg">
<g transform="rotate(-22.5 18 24.5)">
<path d="M20.9262 0.00557962C22.7186 -0.00365183 24.511 -0.00142826 26.3033 0.0122504L26.3011 7.13711C28.8817 7.19043 31.4631 7.19518 34.0438 7.15142C34.6017 7.14196 35.0614 7.58787 35.0606 8.14587C35.0582 9.87304 35.0312 12.0804 35.0442 13.8114C35.0484 14.3706 34.5995 14.8307 34.0402 14.8318C32.2616 14.8351 30.6737 14.8288 28.5662 14.8288C24.5662 14.8288 20.5662 14.8288 16.5662 14.8288C14.4218 14.8288 11.9096 14.8288 9.82259 14.8288C9.2703 14.8288 8.82297 15.2764 8.82272 15.8287C8.82214 17.071 8.82107 18.5163 8.82301 19.524V23.7096V28.7096C8.8179 29.303 8.8197 31.2886 8.8214 32.5122C8.82217 33.0637 9.26898 33.5091 9.82051 33.5091C9.91604 33.5091 10.0207 33.5091 10.1354 33.5091C20.9188 33.5091 20.9172 33.7096 33.5662 33.7096C33.7559 33.7096 33.9216 33.7096 34.0664 33.7096C34.6187 33.7096 35.0662 34.1559 35.0662 34.7082C35.0662 36.0428 35.0662 38.4061 35.0662 39.842C35.0662 40.4038 34.6034 40.8571 34.0418 40.8695C33.5309 40.8807 33.002 40.8992 32.5371 40.9008L26.2964 40.9131C26.3307 42.5059 26.2736 44.1532 26.2983 45.7504C26.3101 46.5124 26.2645 47.3958 26.3431 48.1421C24.6964 48.0705 22.6516 48.1751 20.9343 48.1358C20.9021 45.7572 20.9857 43.4533 20.9188 41.0442L18.4833 41.0473L18.4818 45.4707C18.4821 46.1741 18.4507 47.4648 18.5515 48.1228C16.7906 48.1981 14.7457 48.135 12.9797 48.1025C12.9888 45.7084 13.0755 43.1487 12.9647 40.7789C10.6611 40.7644 10.5662 40.7789 6.56622 40.2096C1.37897 38.9805 -0.0182254 35.6385 0.000170121 30.6912C0.00818868 27.0084 -0.0171481 23.1919 0.0363538 19.524C0.0846673 16.2095 -0.138234 11.5124 2.30561 8.97288C4.83832 6.34111 9.72081 7.35145 12.9655 7.26561C13.0788 4.81301 12.9603 2.44632 13.0084 0.00227813C14.8263 0.0191238 16.6445 0.0205381 18.4625 0.00652246C18.4183 0.618965 18.4565 1.67068 18.4632 2.31364L18.5055 6.87263C19.31 6.92162 20.1158 6.94621 20.9217 6.94641C20.9299 4.70095 20.9881 2.23083 20.9262 0.00557962Z" fill="#67FEB7"/>
</g>
</svg>
