<svg width="80" height="80" viewBox="0 0 80 80" fill="none" xmlns="http://www.w3.org/2000/svg">
<g clip-path="url(#clip0_10_13695)">
<path fill-rule="evenodd" clip-rule="evenodd" d="M46.1452 64.7839C56.4702 64.7839 65.3386 58.5383 69.1885 49.6139H78.2616C74.0228 63.3429 61.2471 73.3171 46.1452 73.3171C31.0432 73.3171 18.2676 63.3429 14.0287 49.6139H23.1019C26.9518 58.5383 35.8201 64.7839 46.1452 64.7839ZM46.1452 14.5331C35.8201 14.5331 26.9518 20.7788 23.1019 29.7032H14.0287C18.2676 15.9742 31.0432 6 46.1452 6C61.2471 6 74.0228 15.9742 78.2616 29.7032H78.2656C79.5471 34.1552 79.7561 37.6006 79.7561 39.1845C79.7561 41.7105 79.5471 43.4559 79.5471 43.4559H0L6.6275 35.1468H43.2251H61.6358H70.8356C70.8356 35.1468 70.2882 32.0735 69.1898 29.7032H69.1885C65.3386 20.7788 56.4702 14.5331 46.1452 14.5331Z" fill="#65FEB7"/>
</g>
<defs>
<clipPath id="clip0_10_13695">
<rect width="79.76" height="79.76" fill="white"/>
</clipPath>
</defs>
</svg>
