
<svg width="24" height="24" viewBox="0 0 24 24" fill="none" xmlns="http://www.w3.org/2000/svg">
<g clip-path="url(#clip0_8397_189407)">
<path d="M7.10495 15.21C7.7586 15.4691 8.30051 15.9495 8.63613 16.5674C8.97175 17.1853 9.07975 17.9014 8.9413 18.5907C8.80285 19.2801 8.42673 19.899 7.87858 20.3393C7.33043 20.7797 6.64505 21.0136 5.94204 21.0003C5.23903 20.9869 4.56303 20.7271 4.032 20.2662C3.50098 19.8054 3.14864 19.1727 3.03648 18.4785C2.92432 17.7844 3.05945 17.0729 3.4183 16.4682C3.77715 15.8636 4.33692 15.4041 4.99995 15.17V8.83001C4.33245 8.59411 3.76985 8.12982 3.41159 7.51921C3.05332 6.9086 2.92246 6.19099 3.04213 5.49322C3.16181 4.79546 3.52431 4.16247 4.06557 3.70614C4.60683 3.24981 5.29199 2.99952 5.99995 2.99952C6.7079 2.99952 7.39306 3.24981 7.93432 3.70614C8.47558 4.16247 8.83808 4.79546 8.95776 5.49322C9.07743 6.19099 8.94657 6.9086 8.58831 7.51921C8.23004 8.12982 7.66744 8.59411 6.99995 8.83001V12C7.83595 11.372 8.87395 11 9.99995 11H13.9999C14.6581 11 15.2979 10.7837 15.821 10.3844C16.3441 9.98507 16.7215 9.42485 16.8949 8.79001C16.2381 8.52992 15.6941 8.04644 15.3587 7.4247C15.0233 6.80297 14.9179 6.08283 15.0612 5.39107C15.2045 4.69931 15.5873 4.08027 16.1421 3.64295C16.6969 3.20563 17.3882 2.97806 18.0943 3.0003C18.8004 3.02254 19.476 3.29316 20.0022 3.76453C20.5284 4.2359 20.8714 4.87779 20.9709 5.5772C21.0704 6.27661 20.92 6.98869 20.5461 7.58809C20.1722 8.18748 19.5988 8.63577 18.9269 8.85401C18.7255 10.0147 18.1209 11.067 17.2195 11.8255C16.3182 12.584 15.178 12.9999 13.9999 13H9.99995C9.34184 13 8.70196 13.2163 8.17885 13.6156C7.65575 14.015 7.27841 14.5752 7.10495 15.21ZM5.99995 17C5.73473 17 5.48038 17.1054 5.29284 17.2929C5.1053 17.4804 4.99995 17.7348 4.99995 18C4.99995 18.2652 5.1053 18.5196 5.29284 18.7071C5.48038 18.8947 5.73473 19 5.99995 19C6.26516 19 6.51952 18.8947 6.70705 18.7071C6.89459 18.5196 6.99995 18.2652 6.99995 18C6.99995 17.7348 6.89459 17.4804 6.70705 17.2929C6.51952 17.1054 6.26516 17 5.99995 17ZM5.99995 5.00001C5.73473 5.00001 5.48038 5.10537 5.29284 5.29291C5.1053 5.48044 4.99995 5.7348 4.99995 6.00001C4.99995 6.26523 5.1053 6.51958 5.29284 6.70712C5.48038 6.89466 5.73473 7.00001 5.99995 7.00001C6.26516 7.00001 6.51952 6.89466 6.70705 6.70712C6.89459 6.51958 6.99995 6.26523 6.99995 6.00001C6.99995 5.7348 6.89459 5.48044 6.70705 5.29291C6.51952 5.10537 6.26516 5.00001 5.99995 5.00001ZM17.9999 5.00001C17.7347 5.00001 17.4804 5.10537 17.2928 5.29291C17.1053 5.48044 16.9999 5.7348 16.9999 6.00001C16.9999 6.26523 17.1053 6.51958 17.2928 6.70712C17.4804 6.89466 17.7347 7.00001 17.9999 7.00001C18.2652 7.00001 18.5195 6.89466 18.7071 6.70712C18.8946 6.51958 18.9999 6.26523 18.9999 6.00001C18.9999 5.7348 18.8946 5.48044 18.7071 5.29291C18.5195 5.10537 18.2652 5.00001 17.9999 5.00001Z" fill="white"/>
</g>
<defs>
<clipPath id="clip0_8397_189407">
<rect width="24" height="24" fill="white"/>
</clipPath>
</defs>
</svg>
