<svg width="24" height="20" viewBox="0 0 24 20" fill="none" xmlns="http://www.w3.org/2000/svg">
<path fill-rule="evenodd" clip-rule="evenodd" d="M13.9198 17.2873C16.6686 17.2873 19.0732 15.8401 20.3864 13.6792H23.2381C21.7254 17.2698 18.1231 19.796 13.9198 19.796C9.71657 19.796 6.11421 17.2698 4.60148 13.6792H7.45319C8.76641 15.8401 11.171 17.2873 13.9198 17.2873ZM13.9198 2.50871C10.4965 2.50871 7.60703 4.75336 6.69464 7.82556H4.06112C5.03126 3.35397 9.07665 0 13.9198 0C18.7629 0 22.8083 3.35393 23.7785 7.82547H23.7798C23.9474 8.59222 24 9.26969 24 10.0552C24 10.5457 23.8014 11.8687 23.8014 11.8687H0L1.9871 9.42587H12.96H18.48H21.3885C21.3885 9.42587 21.3885 8.94048 21.1463 7.82556H21.145C20.2326 4.75336 17.3432 2.50871 13.9198 2.50871Z" fill="#91FBBC"/>
</svg>
